<svg width="32" height="32" viewBox="0 0 32 32" fill="none" xmlns="http://www.w3.org/2000/svg">
<rect width="32" height="32" fill="#141414"/>
<path d="M15.0086 22.3915H14.0165L9.78093 16.4006H4.66776V15.6184H9.74277L13.9783 9.60852H14.9704L10.4868 15.9427L15.0086 22.3915ZM4.85855 22.3915H4V9.60852H4.85855V22.3915Z" fill="white"/>
<path d="M16.9254 15.9999C16.9254 16.3052 16.6773 16.5341 16.3721 16.5341C16.0859 16.5341 15.8569 16.3052 15.8569 15.9999C15.8569 15.7137 16.0859 15.4657 16.3721 15.4657C16.6773 15.4657 16.9254 15.7137 16.9254 15.9999Z" fill="white"/>
<path d="M23.1158 22.5822C21.882 22.5822 20.8645 22.3978 20.0632 22.0289C19.2746 21.6474 18.6958 21.1386 18.327 20.5026C17.9581 19.8667 17.7737 19.1735 17.7737 18.423V18.3085H18.6322V18.5375C18.6322 19.2243 18.7849 19.8094 19.0901 20.2928C19.4081 20.7634 19.8978 21.1259 20.5592 21.3803C21.2206 21.6346 22.0728 21.7618 23.1158 21.7618C24.0061 21.7618 24.7439 21.6728 25.3289 21.4947C25.9268 21.3039 26.3783 21.0241 26.6836 20.6553C26.9888 20.2864 27.1414 19.8221 27.1414 19.2625C27.1414 18.4485 26.8871 17.857 26.3783 17.4881C25.8822 17.1193 25.1191 16.8204 24.0888 16.5914L21.6658 16.0954C21.0044 15.9427 20.3811 15.7456 19.796 15.5039C19.2237 15.2623 18.7658 14.9252 18.4224 14.4927C18.0789 14.0476 17.9072 13.4688 17.9072 12.7566C17.9072 12.3495 17.9963 11.9489 18.1743 11.5546C18.3651 11.1476 18.6577 10.7851 19.052 10.4671C19.4463 10.1491 19.955 9.8947 20.5783 9.70391C21.2015 9.51312 21.9456 9.41772 22.8105 9.41772C23.9807 9.41772 24.9347 9.60851 25.6724 9.99009C26.4101 10.3717 26.9507 10.8804 27.2941 11.5164C27.6502 12.1397 27.8283 12.8265 27.8283 13.5769V13.6914H26.9697V13.4625C26.9697 12.7756 26.8171 12.1969 26.5118 11.7263C26.2193 11.2429 25.7614 10.8804 25.1382 10.6388C24.5276 10.3844 23.7454 10.2572 22.7914 10.2572C21.8884 10.2572 21.1379 10.3462 20.5401 10.5243C19.9423 10.7024 19.4971 10.9695 19.2046 11.3256C18.9121 11.6818 18.7658 12.1269 18.7658 12.6612C18.7658 13.2208 18.8739 13.666 19.0901 13.9967C19.3191 14.3274 19.6625 14.5945 20.1204 14.798C20.591 14.9888 21.1825 15.1669 21.8947 15.3322L24.2987 15.8283C24.9982 15.9682 25.6279 16.1717 26.1875 16.4388C26.7472 16.6932 27.186 17.043 27.5039 17.4881C27.8346 17.9206 28 18.4803 28 19.1671C28 19.7395 27.8219 20.2928 27.4658 20.827C27.1224 21.3485 26.5945 21.7746 25.8822 22.1053C25.17 22.4232 24.2478 22.5822 23.1158 22.5822Z" fill="white"/>
</svg>
