<svg width="256" height="256" viewBox="0 0 256 256" fill="none" xmlns="http://www.w3.org/2000/svg">
<rect width="256" height="256" fill="#141414"/>
<path d="M119.738 181.262H111.47L76.1744 131.339H33.5647V124.82H75.8564L111.153 74.7378H119.42L82.0571 127.523L119.738 181.262ZM35.1546 181.262H28V74.7378H35.1546V181.262Z" fill="white"/>
<path d="M135.711 127.999C135.711 130.543 133.644 132.451 131.101 132.451C128.716 132.451 126.808 130.543 126.808 127.999C126.808 125.615 128.716 123.548 131.101 123.548C133.644 123.548 135.711 125.615 135.711 127.999Z" fill="white"/>
<path d="M187.298 182.852C177.017 182.852 168.537 181.315 161.86 178.241C155.288 175.062 150.465 170.822 147.391 165.522C144.318 160.222 142.781 154.446 142.781 148.192V147.238H149.935V149.146C149.935 154.87 151.207 159.745 153.751 163.773C156.401 167.695 160.482 170.716 165.993 172.836C171.505 174.956 178.607 176.015 187.298 176.015C194.718 176.015 200.866 175.274 205.741 173.79C210.723 172.2 214.486 169.868 217.03 166.794C219.574 163.72 220.846 159.851 220.846 155.188C220.846 148.404 218.726 143.475 214.486 140.401C210.352 137.327 203.992 134.837 195.407 132.929L175.215 128.795C169.703 127.523 164.51 125.88 159.634 123.866C154.864 121.852 151.048 119.043 148.186 115.44C145.325 111.73 143.894 106.907 143.894 100.971C143.894 97.5796 144.636 94.2407 146.12 90.9549C147.709 87.5631 150.147 84.5422 153.433 81.8924C156.719 79.2425 160.959 77.1226 166.152 75.5327C171.346 73.9428 177.547 73.1478 184.754 73.1478C194.506 73.1478 202.456 74.7377 208.603 77.9176C214.751 81.0974 219.256 85.3372 222.117 90.6369C225.085 95.8306 226.569 101.554 226.569 107.808V108.762H219.415V106.854C219.415 101.13 218.143 96.3076 215.599 92.3858C213.161 88.358 209.345 85.3372 204.151 83.3233C199.064 81.2034 192.545 80.1435 184.595 80.1435C177.07 80.1435 170.816 80.8854 165.834 82.3693C160.853 83.8533 157.143 86.0791 154.705 89.047C152.267 92.0148 151.048 95.7246 151.048 100.176C151.048 104.84 151.949 108.55 153.751 111.306C155.659 114.062 158.521 116.288 162.337 117.983C166.258 119.573 171.187 121.057 177.123 122.435L197.156 126.569C202.985 127.735 208.232 129.431 212.896 131.657C217.56 133.777 221.216 136.692 223.866 140.401C226.622 144.005 228 148.669 228 154.393C228 159.162 226.516 163.773 223.548 168.225C220.686 172.571 216.288 176.121 210.352 178.877C204.416 181.527 196.732 182.852 187.298 182.852Z" fill="white"/>
</svg>
