<svg width="156" height="86" viewBox="0 0 156 86" fill="none" xmlns="http://www.w3.org/2000/svg">
<path d="M71.5556 84.3291H65.1069L37.576 45.3889H4.34046V40.3044H37.328L64.8589 1.24011H71.3076L42.1645 42.4126L71.5556 84.3291ZM5.58059 84.3291H0V1.24011H5.58059V84.3291Z" fill="white"/>
<path d="M79.3348 42.7841C79.3348 44.7684 77.7226 46.2565 75.7384 46.2565C73.8782 46.2565 72.39 44.7684 72.39 42.7841C72.39 40.9239 73.8782 39.3118 75.7384 39.3118C77.7226 39.3118 79.3348 40.9239 79.3348 42.7841Z" fill="white"/>
<path d="M124.253 85.5693C116.233 85.5693 109.619 84.3705 104.41 81.9729C99.2846 79.4926 95.5229 76.1856 93.1253 72.0518C90.7277 67.9181 89.5289 63.4122 89.5289 58.5344V57.7903H95.1095V59.2784C95.1095 63.7429 96.1016 67.546 98.0858 70.6877C100.153 73.7467 103.336 76.1029 107.635 77.7565C111.934 79.41 117.473 80.2367 124.253 80.2367C130.04 80.2367 134.835 79.658 138.638 78.5005C142.524 77.2604 145.459 75.4415 147.443 73.0439C149.427 70.6463 150.419 67.6287 150.419 63.991C150.419 58.6997 148.766 54.8553 145.459 52.4577C142.235 50.0601 137.274 48.1172 130.577 46.6291L114.828 43.4047C110.528 42.4126 106.477 41.1311 102.674 39.5603C98.9539 37.9895 95.9776 35.7986 93.7453 32.9876C91.5131 30.0939 90.397 26.3322 90.397 21.7024C90.397 19.0567 90.9757 16.4525 92.1332 13.8895C93.3733 11.2439 95.2749 8.88763 97.8378 6.82074C100.401 4.75385 103.708 3.10033 107.759 1.8602C111.81 0.620066 116.646 0 122.268 0C129.875 0 136.075 1.24013 140.87 3.7204C145.666 6.20067 149.179 9.5077 151.412 13.6415C153.726 17.6926 154.884 22.1571 154.884 27.0349V27.779H149.303V26.2909C149.303 21.8264 148.311 18.0646 146.327 15.0056C144.425 11.864 141.449 9.5077 137.398 7.93686C133.43 6.28335 128.345 5.45659 122.144 5.45659C116.274 5.45659 111.397 6.03532 107.511 7.19278C103.625 8.35024 100.731 10.0864 98.8299 12.4013C96.9284 14.7163 95.9776 17.6099 95.9776 21.0823C95.9776 24.72 96.6803 27.6137 98.0858 29.7632C99.574 31.9128 101.806 33.649 104.783 34.9718C107.841 36.2119 111.686 37.3694 116.316 38.4442L131.941 41.6685C136.489 42.578 140.581 43.9008 144.219 45.637C147.856 47.2905 150.709 49.5641 152.776 52.4577C154.925 55.2687 156 58.9064 156 63.3709C156 67.0913 154.843 70.6877 152.528 74.1601C150.295 77.5498 146.864 80.3194 142.235 82.469C137.605 84.5359 131.611 85.5693 124.253 85.5693Z" fill="white"/>
</svg>
